<svg width="209" height="79" viewBox="0 0 209 79" fill="none" xmlns="http://www.w3.org/2000/svg">
<path fill-rule="evenodd" clip-rule="evenodd" d="M160.063 8.75726V77H168.033V48.441H182.147L198.917 77H208.215L189.452 46.2825C189.664 46.2021 189.876 46.1224 190.089 46.0424C192.66 45.0761 195.326 44.0742 198.087 41.4673C204.767 35.1577 205.392 21.0518 198.253 14.2366C194.6 10.7498 187.958 8.75726 181.727 8.75726H160.063ZM168.033 15.5649V41.7994H179.158C184.139 41.7994 187.626 40.8031 191.279 38.3125C194.932 35.8219 198.418 25.1953 190.781 18.3876C188.225 16.11 183.475 15.2328 168.033 15.5649Z" fill="white"/>
<path d="M79.6983 42.5172C78.9511 35.5202 79.1527 36.5184 79.0344 33.7316H97.3146C97.3146 36.2707 97.2646 37.2616 96.7098 42.4564C95.9626 49.4534 94.7137 58.7341 94.4573 62.4999C94.146 65.1521 94.1327 70.7966 95.759 73.6149C96.5098 74.5259 96.5999 76.7732 95.0067 76.7732L81.4015 76.834C79.8082 76.834 79.8983 74.5867 80.6492 73.6756C82.2754 70.8574 82.2622 65.2128 81.9509 62.5606C81.6945 58.7949 80.4455 49.5142 79.6983 42.5172Z" fill="#F5B85B"/>
<path d="M79.0801 31.2899C79.0801 32.5429 79.0353 33.2614 79.0353 33.8363C84.9223 34.1677 97.284 34.7526 97.284 33.8363C97.284 33.1259 97.3459 32.0002 97.2249 31.2899C97.104 30.5796 79.0801 30.3665 79.0801 31.2899Z" fill="#FFEAB4"/>
<path d="M83.0493 76.834C82.0657 76.7607 81.0128 75.7094 81.0286 75.0075C80.934 74.2751 83.0694 69.1961 83.3531 69.1961C82.8802 73.6821 85.1267 73.7129 89.1462 73.9876C94.7262 73.6214 93.1495 70.5244 92.9835 69.1961C93.5037 70.7525 95.9722 73.0512 95.9722 74.6992C95.7358 76.3471 95.2969 76.5593 94.824 76.834H83.0493Z" fill="#FFEAB4"/>
<path d="M79.5859 43.2792C78.8307 36.4376 79.0121 29.8968 79.1972 27.4817L97.1678 27.4223C97.3529 29.8375 97.5343 36.3782 96.7791 43.2198C96.024 50.0614 94.7616 59.136 94.5025 62.8181C94.1879 65.4115 94.4137 70.9307 96.0573 73.6863C96.8161 74.5772 96.6681 76.7746 95.0578 76.7746L81.3072 76.8339C79.697 76.8339 79.5489 74.6366 80.3078 73.7457C81.9514 70.9901 82.1772 65.4709 81.8625 62.8775C81.6034 59.1954 80.3411 50.1208 79.5859 43.2792Z" stroke="white" stroke-width="3"/>
<path d="M92.6509 70.2928C92.3752 70.253 91.9867 67.8678 91.9867 65.7093C91.718 66.8868 91.484 70.063 91.6134 71.3884C92.1633 70.969 92.7198 70.3028 92.6509 70.2928Z" fill="white"/>
<path d="M91.6548 61.3922C93.9963 43.7911 92.0976 41.9814 92.122 36.5097L94.9756 35.3238C94.9756 41.8649 92.4428 56.711 91.6548 61.3922Z" fill="white"/>
<circle cx="88.0774" cy="11.0772" r="10.0772" fill="#FFD875" stroke="white" stroke-width="2"/>
<circle cx="88.1595" cy="11.1589" r="6.21661" fill="#FFA756" stroke="white"/>
<path d="M82.3318 11.2992H94.1835" stroke="white" stroke-width="0.5"/>
<path d="M88.2998 5.33075V17.1825" stroke="white" stroke-width="0.5"/>
<path d="M84.0956 7.09442L92.476 15.4749" stroke="white" stroke-width="0.5"/>
<path d="M92.5634 7.03607L84.037 15.5625" stroke="white" stroke-width="0.5"/>
<path d="M150.982 1.70154C146.573 7.56904 135.539 22.9221 126.678 37.3942C132.993 28.7273 146.695 9.45504 150.982 1.70154Z" fill="#F5B85B"/>
<ellipse rx="4.14681" ry="2.92288" transform="matrix(0.856047 0.516898 -0.505503 0.862825 130.885 30.691)" fill="#78AC44"/>
<path d="M151.76 12.0781H106.929L129.345 45.9504L151.76 12.0781Z" fill="#FF9E74" fill-opacity="0.7"/>
<path d="M133.994 41.3014L155.247 8.42533H151.262L129.345 41.3014L107.76 8.42533H103.775L124.696 41.3014H129.345H133.994Z" fill="white"/>
<path fill-rule="evenodd" clip-rule="evenodd" d="M133.994 41.3013L156.576 76.834L148.44 76.8341H108.258L101.948 76.834L124.696 41.3013H129.345H133.994ZM116.742 74.1774L127.02 69.8603L129.179 46.7807L131.337 69.8603L141.411 74.1774H116.742Z" fill="white"/>
<path d="M11.7889 8.59125H0V76.834H7.47183V28.1841L6.80767 16.3952H7.13975L30.0534 76.834H36.529L59.7747 16.5612H60.1067L59.6086 28.1841V76.834H67.4125V8.59125H55.6236L33.7063 65.3772H33.3742L11.7889 8.59125Z" fill="white"/>
</svg>
