<svg width="316" height="600" viewBox="0 0 316 600" fill="none" xmlns="http://www.w3.org/2000/svg">
<path d="M269 559.183C248.178 552.778 98.8652 538.139 43 563.758C47.5708 560.59 50.1101 556.298 64.8382 553.693C103.603 546.836 199.022 547.394 245.638 553.693C262.572 555.981 261.382 552.778 269 559.183Z" fill="#ACACAC"/>
<path d="M304 12.2576C140 -6.06703 101.5 0.868849 34 9.2576C28.2466 10.3619 20.6031 10.6578 17.5 10.7576C14.6196 10.8503 13.2047 8.7418 10 9.75758C16.5 0.757602 210.967 -5.32941 285 6.75758C297.956 8.87284 305.921 8.32822 308 9.2576C309.853 10.0857 306.12 10.3728 304 12.2576Z" fill="#C4C4C4"/>
<path d="M299 10.7576C135.231 39.1619 85.905 23.2607 18.5 10.2576C14 10.2576 14.0988 9.41232 11 9.2576C8.12365 9.11398 6.5 11.7576 8.00003 12.6328C14.4909 26.5833 208.684 36.0185 282.613 17.2829C295.551 14.0042 304.924 13.6982 307 12.2576C312 7.7576 304.5 10.2576 299 10.7576Z" fill="#707070"/>
<path d="M42.6126 575.758C34.0228 573.358 42.9827 558.091 46.5618 550.758C47.7889 560.758 50.623 565.924 53.8612 567.258C77.5856 577.258 131.608 583.258 158.537 583.258C190.408 581.924 260.529 574.058 262.983 567.258C265.437 560.458 264.546 553.424 265.398 550.758C271.125 560.358 276.136 569.758 273.068 575.758C264.887 585.258 216.935 589.258 158.537 589.258C85.9319 589.258 53.3499 578.758 42.6126 575.758Z" fill="#4F5152"/>
<path d="M13.5309 292.258C-7.66905 197.058 0.697616 65.5909 7.53095 11.7576C0.730953 116.958 10.3643 240.591 16.0309 289.258C25.8643 334.591 45.6309 439.858 46.0309 498.258C46.4309 556.658 36.6667 572.424 33 573.258C37.8 563.658 42.1976 535.758 42.5309 522.758C41.6976 485.591 34.7309 387.458 13.5309 292.258Z" fill="#707070"/>
<path d="M301.516 292.258C322.716 197.058 314.349 65.5909 307.516 11.7576C314.316 116.958 304.683 240.591 299.016 289.258C289.183 334.591 269.416 439.858 269.016 498.258C268.616 556.658 275.849 572.924 279.516 573.758C274.716 564.158 272.849 535.758 272.516 522.758C273.349 485.591 280.316 387.458 301.516 292.258Z" fill="#707070"/>
<path d="M162.5 599.758C78.5 601.358 42.3333 582.591 34.5 573.758C58 588.258 119.891 590.306 157 591.258C196 592.258 256.5 592.258 280 573.758C275.833 581.758 246.5 598.158 162.5 599.758Z" fill="#707070"/>
</svg>
