<svg width="197" height="44" viewBox="0 0 197 44" fill="none" xmlns="http://www.w3.org/2000/svg">
<path d="M15.9977 33.2868C6.77721 31.0064 -5.00011 30.9026 3 11.4669C3.5 10.3003 4 7.96692 4.5 5.46692C33.3333 10.4669 111.8 17.4669 193 5.46692C193 6.96692 193.6 10.6669 194 11.4669L194.5 12.8541C200.267 26.3096 191.72 31.5048 182.5 33.7852C175.5 35.5165 154.85 43.9976 99.54 43.6376C44.2296 43.2775 27.9627 35.3869 15.9977 33.2868Z" fill="#F5B85B"/>
<path d="M0.99884 24.8835C50.1255 42.7421 144.368 37.3751 194.999 24.8835C164.42 45.8694 35.588 49.367 0.99884 24.8835Z" fill="#EC9A1E"/>
<path d="M4.5 5.46689C44.4117 1.34144 135.411 -4.43415 193 5.46692C169.728 14.0125 35.6094 19.1693 4.5 5.46689Z" fill="#F0A432"/>
</svg>
