<svg width="263" height="341" viewBox="0 0 263 341" fill="none" xmlns="http://www.w3.org/2000/svg">
<path d="M48.4976 330.13C39.2772 327.849 27.4998 327.745 35.4999 308.31C35.9999 307.143 36.4999 304.81 36.9999 302.31C65.8333 307.31 144.3 314.31 225.5 302.31C225.5 303.81 226.1 307.51 226.5 308.31L227 309.697C232.767 323.152 224.22 328.348 215 330.628C208 332.359 187.35 340.84 132.04 340.48C76.7295 340.12 60.4626 332.23 48.4976 330.13Z" fill="#F5B85B"/>
<path d="M33.4988 321.726C82.6254 339.585 176.868 334.218 227.499 321.726C196.92 342.712 68.0879 346.21 33.4988 321.726Z" fill="#EC9A1E"/>
<path d="M37 302.31C76.9117 298.184 167.911 292.409 225.5 302.31C202.228 310.855 68.1094 316.012 37 302.31Z" fill="#F0A432"/>
<path d="M225.5 283.31C224.5 296.31 225.5 300.81 225.5 302.31C204.5 316.31 45 314.31 37 302.31C37.1667 301.643 37.5001 298.12 37.5001 296.12C37.5001 285.12 36.5424 274.842 36 269.81C64.1667 276.976 141.3 287.01 226.5 269.81L225.5 283.31Z" fill="#F5B85B"/>
<path d="M36 269.81C75.2848 263.916 169.816 255.665 226.5 269.81C203.594 282.018 66.6208 289.385 36 269.81Z" fill="#F0A432"/>
<path d="M230.5 236.81C144.194 254.01 61.0325 243.976 32.5 236.81C33.7 246.01 35.5 262.81 36 269.81C55.5 285.81 182.5 288.81 226.5 269.81L230.5 236.81Z" fill="#F5B85B"/>
<path d="M32.5 236.81C72.295 230.916 173.08 222.665 230.5 236.81C207.296 249.018 63.5184 256.385 32.5 236.81Z" fill="#F0A432"/>
<path d="M235 204.81C144.001 221.826 58.0838 211.9 28 204.81L32.5 236.81C59.5 256.81 208.071 250.66 230.5 236.81L235 204.81Z" fill="#F5B85B"/>
<path d="M28 204.81C67.795 198.916 177.58 190.665 235 204.81C211.796 217.018 59.0184 224.385 28 204.81Z" fill="#F0A432"/>
<path d="M240 171.81C146.612 189.01 53.8737 178.976 23 171.81L28 204.81C30 219.31 201.5 226.81 235 204.81L240 171.81Z" fill="#F5B85B"/>
<path d="M23 171.81C66.0602 165.916 177.868 157.665 240 171.81C214.892 184.018 56.5635 191.385 23 171.81Z" fill="#F0A432"/>
<path d="M245.5 138.81C147.364 156.01 49.9433 145.977 17.5 138.81L23 171.81C52 192.31 215.812 185.81 240 171.81L245.5 138.81Z" fill="#F5B85B"/>
<path d="M17.5 138.81C62.7495 132.916 180.209 124.665 245.5 138.81C219.116 151.018 52.77 158.385 17.5 138.81Z" fill="#F0A432"/>
<path d="M251 105.81C147.957 123.01 46.0655 112.976 12 105.81L17.5 138.81C43 159.31 222.5 153.81 245.5 138.81L251 105.81Z" fill="#F5B85B"/>
<path d="M12 105.81C59.512 99.9163 182.445 91.6655 251 105.81C223.297 118.018 49.0335 125.385 12 105.81Z" fill="#F0A432"/>
<path d="M256 72.8099C148.496 90.0099 42.5402 79.9766 7 72.8099L12 105.81C25 125.81 228.5 122.31 251 105.81L256 72.8099Z" fill="#F5B85B"/>
<path d="M7 72.8098C56.5688 66.9163 184.477 58.6655 256 72.8099C227.097 85.0178 45.6367 92.3847 7 72.8098Z" fill="#F0A432"/>
<path d="M260 39.8099C147.59 57.0099 40.1624 47.4766 3 40.3099L7 72.8099C27.5 93.3098 226.5 92.3098 256 72.8099L260 39.8099Z" fill="#F5B85B"/>
<path d="M3 40.3099C54.8312 34.4164 185.213 25.6654 260 39.8098C229.778 52.0178 43.4002 59.8847 3 40.3099Z" fill="#F0A432"/>
<path d="M263 7.80981C147.467 25.0098 38.1947 14.9765 0 7.80981L3 40.3098C22.5 59.8098 235 57.3098 260 39.8098L263 7.80981Z" fill="#F5B85B"/>
<path d="M0 7.80981C53.271 1.91632 186.135 -6.33452 263 7.80987C231.939 20.0178 41.5224 27.3847 0 7.80981Z" fill="#F0A432"/>
</svg>
