<svg width="268" height="373" viewBox="0 0 268 373" fill="none" xmlns="http://www.w3.org/2000/svg">
<path d="M50.9976 362.63C41.7772 360.349 29.9998 360.245 37.9999 340.81C38.4999 339.643 38.9999 337.31 39.4999 334.81C68.3333 339.81 146.8 346.81 228 334.81C228 336.31 228.6 340.01 229 340.81L229.5 342.197C235.267 355.652 226.72 360.848 217.5 363.128C210.5 364.859 189.85 373.34 134.54 372.98C79.2295 372.62 62.9626 364.73 50.9976 362.63Z" fill="#F5B85B"/>
<path d="M35.9988 354.226C85.1254 372.085 179.368 366.718 229.999 354.226C199.42 375.212 70.5879 378.71 35.9988 354.226Z" fill="#EC9A1E"/>
<path d="M39.5 334.81C79.4117 330.684 170.411 324.909 228 334.81C204.728 343.355 70.6094 348.512 39.5 334.81Z" fill="#F0A432"/>
<path d="M228 315.81C227 328.81 228 333.31 228 334.81C207 348.81 47.5 346.81 39.5 334.81C39.6667 334.143 40.0001 330.62 40.0001 328.62C40.0001 317.62 39.0424 307.342 38.5 302.31C66.6667 309.476 143.8 319.51 229 302.31L228 315.81Z" fill="#F5B85B"/>
<path d="M38.5 302.31C77.7848 296.416 172.316 288.165 229 302.31C206.094 314.518 69.1208 321.885 38.5 302.31Z" fill="#F0A432"/>
<path d="M233 269.31C146.694 286.51 63.5325 276.476 35 269.31C36.2 278.51 38 295.31 38.5 302.31C58 318.31 185 321.31 229 302.31L233 269.31Z" fill="#F5B85B"/>
<path d="M35 269.31C74.795 263.416 175.58 255.165 233 269.31C209.796 281.518 66.0184 288.885 35 269.31Z" fill="#F0A432"/>
<path d="M237.5 237.31C146.501 254.326 60.5838 244.4 30.5 237.31L35 269.31C62 289.31 210.571 283.16 233 269.31L237.5 237.31Z" fill="#F5B85B"/>
<path d="M30.5 237.31C70.295 231.416 180.08 223.165 237.5 237.31C214.296 249.518 61.5184 256.885 30.5 237.31Z" fill="#F0A432"/>
<path d="M242.5 204.31C149.112 221.51 56.3737 211.476 25.5 204.31L30.5 237.31C32.5 251.81 204 259.31 237.5 237.31L242.5 204.31Z" fill="#F5B85B"/>
<path d="M25.5 204.31C68.5602 198.416 180.368 190.165 242.5 204.31C217.392 216.518 59.0635 223.885 25.5 204.31Z" fill="#F0A432"/>
<path d="M248 171.31C149.864 188.51 52.4433 178.477 20 171.31L25.5 204.31C54.5 224.81 218.312 218.31 242.5 204.31L248 171.31Z" fill="#F5B85B"/>
<path d="M20 171.31C65.2495 165.416 182.709 157.165 248 171.31C221.616 183.518 55.27 190.885 20 171.31Z" fill="#F0A432"/>
<path d="M253.5 138.31C150.457 155.51 48.5655 145.476 14.5 138.31L20 171.31C45.5 191.81 225 186.31 248 171.31L253.5 138.31Z" fill="#F5B85B"/>
<path d="M14.5 138.31C62.012 132.416 184.945 124.165 253.5 138.31C225.797 150.518 51.5335 157.885 14.5 138.31Z" fill="#F0A432"/>
<path d="M258.5 105.31C150.996 122.51 45.0402 112.477 9.5 105.31L14.5 138.31C27.5 158.31 231 154.81 253.5 138.31L258.5 105.31Z" fill="#F5B85B"/>
<path d="M9.5 105.31C59.0688 99.4163 186.977 91.1655 258.5 105.31C229.597 117.518 48.1367 124.885 9.5 105.31Z" fill="#F0A432"/>
<path d="M262.5 72.3099C150.09 89.5099 42.6624 79.9766 5.5 72.8099L9.5 105.31C30 125.81 229 124.81 258.5 105.31L262.5 72.3099Z" fill="#F5B85B"/>
<path d="M5.5 72.8099C57.3312 66.9164 187.713 58.1654 262.5 72.3098C232.278 84.5178 45.9002 92.3847 5.5 72.8099Z" fill="#F0A432"/>
<path d="M265.5 40.3098C149.967 57.5098 40.6947 47.4765 2.5 40.3098L5.5 72.8098C25 92.3098 237.5 89.8098 262.5 72.3098L265.5 40.3098Z" fill="#F5B85B"/>
<path d="M2.5 40.3098C55.771 34.4163 188.635 26.1655 265.5 40.3099C234.439 52.5178 44.0224 59.8847 2.5 40.3098Z" fill="#F0A432"/>
<path d="M268 7.80994C148.899 25.0099 39.3744 14.9766 0 7.80994L2.5 40.3099C9 62.8098 250 59.3098 265.5 40.3099L268 7.80994Z" fill="#F5B85B"/>
<path d="M0 7.80981C54.9164 1.91632 188.761 -6.33453 268 7.80986C235.979 20.0178 42.805 27.3847 0 7.80981Z" fill="#F0A432"/>
</svg>
