<svg width="271" height="407" viewBox="0 0 271 407" fill="none" xmlns="http://www.w3.org/2000/svg">
<path d="M52.4976 396.13C43.2772 393.849 31.4998 393.745 39.4999 374.31C39.9999 373.143 40.4999 370.81 40.9999 368.31C69.8333 373.31 148.3 380.31 229.5 368.31C229.5 369.81 230.1 373.51 230.5 374.31L231 375.697C236.767 389.152 228.22 394.348 219 396.628C212 398.359 191.35 406.84 136.04 406.48C80.7295 406.12 64.4626 398.23 52.4976 396.13Z" fill="#F5B85B"/>
<path d="M37.4988 387.726C86.6254 405.585 180.868 400.218 231.499 387.726C200.92 408.712 72.0879 412.21 37.4988 387.726Z" fill="#EC9A1E"/>
<path d="M41 368.31C80.9117 364.184 171.911 358.409 229.5 368.31C206.228 376.855 72.1094 382.012 41 368.31Z" fill="#F0A432"/>
<path d="M229.5 349.31C228.5 362.31 229.5 366.81 229.5 368.31C208.5 382.31 49 380.31 41 368.31C41.1667 367.643 41.5001 364.12 41.5001 362.12C41.5001 351.12 40.5424 340.842 40 335.81C68.1667 342.976 145.3 353.01 230.5 335.81L229.5 349.31Z" fill="#F5B85B"/>
<path d="M40 335.81C79.2848 329.916 173.816 321.665 230.5 335.81C207.594 348.018 70.6208 355.385 40 335.81Z" fill="#F0A432"/>
<path d="M234.5 302.81C148.194 320.01 65.0325 309.976 36.5 302.81C37.7 312.01 39.5 328.81 40 335.81C59.5 351.81 186.5 354.81 230.5 335.81L234.5 302.81Z" fill="#F5B85B"/>
<path d="M36.5 302.81C76.295 296.916 177.08 288.665 234.5 302.81C211.296 315.018 67.5184 322.385 36.5 302.81Z" fill="#F0A432"/>
<path d="M239 270.81C148.001 287.826 62.0838 277.9 32 270.81L36.5 302.81C63.5 322.81 212.071 316.66 234.5 302.81L239 270.81Z" fill="#F5B85B"/>
<path d="M32 270.81C71.795 264.916 181.58 256.665 239 270.81C215.796 283.018 63.0184 290.385 32 270.81Z" fill="#F0A432"/>
<path d="M244 237.81C150.612 255.01 57.8737 244.976 27 237.81L32 270.81C34 285.31 205.5 292.81 239 270.81L244 237.81Z" fill="#F5B85B"/>
<path d="M27 237.81C70.0602 231.916 181.868 223.665 244 237.81C218.892 250.018 60.5635 257.385 27 237.81Z" fill="#F0A432"/>
<path d="M249.5 204.81C151.364 222.01 53.9433 211.977 21.5 204.81L27 237.81C56 258.31 219.812 251.81 244 237.81L249.5 204.81Z" fill="#F5B85B"/>
<path d="M21.5 204.81C66.7495 198.916 184.209 190.665 249.5 204.81C223.116 217.018 56.77 224.385 21.5 204.81Z" fill="#F0A432"/>
<path d="M255 171.81C151.957 189.01 50.0655 178.976 16 171.81L21.5 204.81C47 225.31 226.5 219.81 249.5 204.81L255 171.81Z" fill="#F5B85B"/>
<path d="M16 171.81C63.512 165.916 186.445 157.665 255 171.81C227.297 184.018 53.0335 191.385 16 171.81Z" fill="#F0A432"/>
<path d="M260 138.81C152.496 156.01 46.5402 145.977 11 138.81L16 171.81C29 191.81 232.5 188.31 255 171.81L260 138.81Z" fill="#F5B85B"/>
<path d="M11 138.81C60.5688 132.916 188.477 124.665 260 138.81C231.097 151.018 49.6367 158.385 11 138.81Z" fill="#F0A432"/>
<path d="M264 105.81C151.59 123.01 44.1624 113.477 7 106.31L11 138.81C31.5 159.31 230.5 158.31 260 138.81L264 105.81Z" fill="#F5B85B"/>
<path d="M7 106.31C58.8312 100.416 189.213 91.6654 264 105.81C233.778 118.018 47.4002 125.885 7 106.31Z" fill="#F0A432"/>
<path d="M267 73.8098C151.467 91.0098 42.1947 80.9765 4 73.8098L7 106.31C26.5 125.81 239 123.31 264 105.81L267 73.8098Z" fill="#F5B85B"/>
<path d="M4 73.8098C57.271 67.9163 190.135 59.6655 267 73.8099C235.939 86.0178 45.5224 93.3847 4 73.8098Z" fill="#F0A432"/>
<path d="M269.5 41.3099C150.399 58.5099 40.8744 48.4766 1.5 41.3099L4 73.8099C10.5 96.3098 251.5 92.8098 267 73.8099L269.5 41.3099Z" fill="#F5B85B"/>
<path d="M1.5 41.3098C56.4164 35.4163 190.261 27.1655 269.5 41.3099C237.479 53.5178 44.305 60.8847 1.5 41.3098Z" fill="#F0A432"/>
<path d="M271 7.80981C149.668 25.0098 40.1118 14.9766 0 7.80994L1.5 41.3099C12.5 61.8098 247.5 58.3098 269.5 41.3098L271 7.80981Z" fill="#F5B85B"/>
<path d="M0 7.80987C55.9448 1.91638 190.277 -6.33458 271 7.80981C238.38 20.0178 43.6065 27.3847 0 7.80987Z" fill="#F0A432"/>
</svg>
