<svg width="272" height="440" viewBox="0 0 272 440" fill="none" xmlns="http://www.w3.org/2000/svg">
<path d="M52.9976 429.13C43.7772 426.849 31.9998 426.745 39.9999 407.31C40.4999 406.143 40.9999 403.81 41.4999 401.31C70.3333 406.31 148.8 413.31 230 401.31C230 402.81 230.6 406.51 231 407.31L231.5 408.697C237.267 422.152 228.72 427.348 219.5 429.628C212.5 431.359 191.85 439.84 136.54 439.48C81.2295 439.12 64.9626 431.23 52.9976 429.13Z" fill="#F5B85B"/>
<path d="M37.9988 420.726C87.1254 438.585 181.368 433.218 231.999 420.726C201.42 441.712 72.5879 445.21 37.9988 420.726Z" fill="#EC9A1E"/>
<path d="M41.5 401.31C81.4117 397.184 172.411 391.409 230 401.31C206.728 409.855 72.6094 415.012 41.5 401.31Z" fill="#F0A432"/>
<path d="M230 382.31C229 395.31 230 399.81 230 401.31C209 415.31 49.5 413.31 41.5 401.31C41.6667 400.643 42.0001 397.12 42.0001 395.12C42.0001 384.12 41.0424 373.842 40.5 368.81C68.6667 375.976 145.8 386.01 231 368.81L230 382.31Z" fill="#F5B85B"/>
<path d="M40.5 368.81C79.7848 362.916 174.316 354.665 231 368.81C208.094 381.018 71.1208 388.385 40.5 368.81Z" fill="#F0A432"/>
<path d="M235 335.81C148.694 353.01 65.5325 342.976 37 335.81C38.2 345.01 40 361.81 40.5 368.81C60 384.81 187 387.81 231 368.81L235 335.81Z" fill="#F5B85B"/>
<path d="M37 335.81C76.795 329.916 177.58 321.665 235 335.81C211.796 348.018 68.0184 355.385 37 335.81Z" fill="#F0A432"/>
<path d="M239.5 303.81C148.501 320.826 62.5838 310.9 32.5 303.81L37 335.81C64 355.81 212.571 349.66 235 335.81L239.5 303.81Z" fill="#F5B85B"/>
<path d="M32.5 303.81C72.295 297.916 182.08 289.665 239.5 303.81C216.296 316.018 63.5184 323.385 32.5 303.81Z" fill="#F0A432"/>
<path d="M244.5 270.81C151.112 288.01 58.3737 277.976 27.5 270.81L32.5 303.81C34.5 318.31 206 325.81 239.5 303.81L244.5 270.81Z" fill="#F5B85B"/>
<path d="M27.5 270.81C70.5602 264.916 182.368 256.665 244.5 270.81C219.392 283.018 61.0635 290.385 27.5 270.81Z" fill="#F0A432"/>
<path d="M250 237.81C151.864 255.01 54.4433 244.977 22 237.81L27.5 270.81C56.5 291.31 220.312 284.81 244.5 270.81L250 237.81Z" fill="#F5B85B"/>
<path d="M22 237.81C67.2495 231.916 184.709 223.665 250 237.81C223.616 250.018 57.27 257.385 22 237.81Z" fill="#F0A432"/>
<path d="M255.5 204.81C152.457 222.01 50.5655 211.976 16.5 204.81L22 237.81C47.5 258.31 227 252.81 250 237.81L255.5 204.81Z" fill="#F5B85B"/>
<path d="M16.5 204.81C64.012 198.916 186.945 190.665 255.5 204.81C227.797 217.018 53.5335 224.385 16.5 204.81Z" fill="#F0A432"/>
<path d="M260.5 171.81C152.996 189.01 47.0402 178.977 11.5 171.81L16.5 204.81C29.5 224.81 233 221.31 255.5 204.81L260.5 171.81Z" fill="#F5B85B"/>
<path d="M11.5 171.81C61.0688 165.916 188.977 157.665 260.5 171.81C231.597 184.018 50.1367 191.385 11.5 171.81Z" fill="#F0A432"/>
<path d="M264.5 138.81C152.09 156.01 44.6624 146.477 7.5 139.31L11.5 171.81C32 192.31 231 191.31 260.5 171.81L264.5 138.81Z" fill="#F5B85B"/>
<path d="M7.5 139.31C59.3312 133.416 189.713 124.665 264.5 138.81C234.278 151.018 47.9002 158.885 7.5 139.31Z" fill="#F0A432"/>
<path d="M267.5 106.81C151.967 124.01 42.6947 113.976 4.5 106.81L7.5 139.31C27 158.81 239.5 156.31 264.5 138.81L267.5 106.81Z" fill="#F5B85B"/>
<path d="M4.5 106.81C57.771 100.916 190.635 92.6655 267.5 106.81C236.439 119.018 46.0224 126.385 4.5 106.81Z" fill="#F0A432"/>
<path d="M270 74.3099C150.899 91.5099 41.3744 81.4766 2 74.3099L4.5 106.81C11 129.31 252 125.81 267.5 106.81L270 74.3099Z" fill="#F5B85B"/>
<path d="M2 74.3098C56.9164 68.4163 190.761 60.1655 270 74.3099C237.979 86.5178 44.805 93.8847 2 74.3098Z" fill="#F0A432"/>
<path d="M271.5 40.8098C150.168 58.0098 40.6118 47.9766 0.5 40.8099L2 74.3099C13 94.8098 248 91.3098 270 74.3098L271.5 40.8098Z" fill="#F5B85B"/>
<path d="M0.5 40.8099C56.4448 34.9164 190.777 26.6654 271.5 40.8098C238.88 53.0178 44.1065 60.3847 0.5 40.8099Z" fill="#F0A432"/>
<path d="M272 7.80981C149.776 25.0098 40.4067 14.9765 0 7.80981L0.5 40.8098C14 62.8098 253 57.8098 271.5 40.8098L272 7.80981Z" fill="#F5B85B"/>
<path d="M0 7.80981C56.3562 1.91632 190.684 -6.33454 272 7.80985C239.14 20.0178 43.9272 27.3847 0 7.80981Z" fill="#F0A432"/>
</svg>
