<svg width="272" height="473" viewBox="0 0 272 473" fill="none" xmlns="http://www.w3.org/2000/svg">
<path d="M52.9976 462.13C43.7772 459.849 31.9998 459.745 39.9999 440.31C40.4999 439.143 40.9999 436.81 41.4999 434.31C70.3333 439.31 148.8 446.31 230 434.31C230 435.81 230.6 439.51 231 440.31L231.5 441.697C237.267 455.152 228.72 460.348 219.5 462.628C212.5 464.359 191.85 472.84 136.54 472.48C81.2295 472.12 64.9626 464.23 52.9976 462.13Z" fill="#F5B85B"/>
<path d="M37.9988 453.726C87.1254 471.585 181.368 466.218 231.999 453.726C201.42 474.712 72.5879 478.21 37.9988 453.726Z" fill="#EC9A1E"/>
<path d="M41.5 434.31C81.4117 430.184 172.411 424.409 230 434.31C206.728 442.855 72.6094 448.012 41.5 434.31Z" fill="#F0A432"/>
<path d="M230 415.31C229 428.31 230 432.81 230 434.31C209 448.31 49.5 446.31 41.5 434.31C41.6667 433.643 42.0001 430.12 42.0001 428.12C42.0001 417.12 41.0424 406.842 40.5 401.81C68.6667 408.976 145.8 419.01 231 401.81L230 415.31Z" fill="#F5B85B"/>
<path d="M40.5 401.81C79.7848 395.916 174.316 387.665 231 401.81C208.094 414.018 71.1208 421.385 40.5 401.81Z" fill="#F0A432"/>
<path d="M235 368.81C148.694 386.01 65.5325 375.976 37 368.81C38.2 378.01 40 394.81 40.5 401.81C60 417.81 187 420.81 231 401.81L235 368.81Z" fill="#F5B85B"/>
<path d="M37 368.81C76.795 362.916 177.58 354.665 235 368.81C211.796 381.018 68.0184 388.385 37 368.81Z" fill="#F0A432"/>
<path d="M239.5 336.81C148.501 353.826 62.5838 343.9 32.5 336.81L37 368.81C64 388.81 212.571 382.66 235 368.81L239.5 336.81Z" fill="#F5B85B"/>
<path d="M32.5 336.81C72.295 330.916 182.08 322.665 239.5 336.81C216.296 349.018 63.5184 356.385 32.5 336.81Z" fill="#F0A432"/>
<path d="M244.5 303.81C151.112 321.01 58.3737 310.976 27.5 303.81L32.5 336.81C34.5 351.31 206 358.81 239.5 336.81L244.5 303.81Z" fill="#F5B85B"/>
<path d="M27.5 303.81C70.5602 297.916 182.368 289.665 244.5 303.81C219.392 316.018 61.0635 323.385 27.5 303.81Z" fill="#F0A432"/>
<path d="M250 270.81C151.864 288.01 54.4433 277.977 22 270.81L27.5 303.81C56.5 324.31 220.312 317.81 244.5 303.81L250 270.81Z" fill="#F5B85B"/>
<path d="M22 270.81C67.2495 264.916 184.709 256.665 250 270.81C223.616 283.018 57.27 290.385 22 270.81Z" fill="#F0A432"/>
<path d="M255.5 237.81C152.457 255.01 50.5655 244.976 16.5 237.81L22 270.81C47.5 291.31 227 285.81 250 270.81L255.5 237.81Z" fill="#F5B85B"/>
<path d="M16.5 237.81C64.012 231.916 186.945 223.665 255.5 237.81C227.797 250.018 53.5335 257.385 16.5 237.81Z" fill="#F0A432"/>
<path d="M260.5 204.81C152.996 222.01 47.0402 211.977 11.5 204.81L16.5 237.81C29.5 257.81 233 254.31 255.5 237.81L260.5 204.81Z" fill="#F5B85B"/>
<path d="M11.5 204.81C61.0688 198.916 188.977 190.665 260.5 204.81C231.597 217.018 50.1367 224.385 11.5 204.81Z" fill="#F0A432"/>
<path d="M264.5 171.81C152.09 189.01 44.6624 179.477 7.5 172.31L11.5 204.81C32 225.31 231 224.31 260.5 204.81L264.5 171.81Z" fill="#F5B85B"/>
<path d="M7.5 172.31C59.3312 166.416 189.713 157.665 264.5 171.81C234.278 184.018 47.9002 191.885 7.5 172.31Z" fill="#F0A432"/>
<path d="M267.5 139.81C151.967 157.01 42.6947 146.976 4.5 139.81L7.5 172.31C27 191.81 239.5 189.31 264.5 171.81L267.5 139.81Z" fill="#F5B85B"/>
<path d="M4.5 139.81C57.771 133.916 190.635 125.665 267.5 139.81C236.439 152.018 46.0224 159.385 4.5 139.81Z" fill="#F0A432"/>
<path d="M270 107.31C150.899 124.51 41.3744 114.477 2 107.31L4.5 139.81C11 162.31 252 158.81 267.5 139.81L270 107.31Z" fill="#F5B85B"/>
<path d="M2 107.31C56.9164 101.416 190.761 93.1655 270 107.31C237.979 119.518 44.805 126.885 2 107.31Z" fill="#F0A432"/>
<path d="M271.5 73.8098C150.168 91.0098 40.6118 80.9766 0.5 73.8099L2 107.31C13 127.81 248 124.31 270 107.31L271.5 73.8098Z" fill="#F5B85B"/>
<path d="M0.5 73.8099C56.4448 67.9164 190.777 59.6654 271.5 73.8098C238.88 86.0178 44.1065 93.3847 0.5 73.8099Z" fill="#F0A432"/>
<path d="M272 40.8098C149.776 58.0098 40.4067 47.9765 0 40.8098L0.5 73.8098C14 95.8098 253 90.8098 271.5 73.8098L272 40.8098Z" fill="#F5B85B"/>
<path d="M0 40.8098C56.3562 34.9163 190.684 26.6655 272 40.8098C239.14 53.0178 43.9272 60.3847 0 40.8098Z" fill="#F0A432"/>
<path d="M271.5 7.80988C149.276 25.0099 40.9067 14.9765 0.5 7.80981L0 40.8098C2.5 59.3098 252.5 57.3098 272 40.8099L271.5 7.80988Z" fill="#F5B85B"/>
<path d="M0.5 7.80981C56.8562 1.91632 190.184 -6.33453 271.5 7.80986C238.64 20.0178 44.4272 27.3847 0.5 7.80981Z" fill="#F0A432"/>
</svg>
