<svg width="272" height="502" viewBox="0 0 272 502" fill="none" xmlns="http://www.w3.org/2000/svg">
<path d="M52.9979 491.622C43.7774 489.342 32.0001 489.238 40.0002 469.803C40.5002 468.636 41.0002 466.303 41.5002 463.803C70.3335 468.803 148.8 475.803 230 463.803C230 465.303 230.6 469.003 231 469.803L231.5 471.19C237.267 484.645 228.721 489.84 219.5 492.121C212.5 493.852 191.851 502.333 136.54 501.973C81.2297 501.613 64.9629 493.723 52.9979 491.622Z" fill="#F5B85B"/>
<path d="M37.999 483.219C87.1256 501.078 181.369 495.711 231.999 483.219C201.42 504.205 72.5882 507.703 37.999 483.219Z" fill="#EC9A1E"/>
<path d="M41.5 463.803C81.4117 459.677 172.411 453.902 230 463.803C206.728 472.348 72.6094 477.505 41.5 463.803Z" fill="#F0A432"/>
<path d="M230 444.803C229 457.803 230 462.303 230 463.803C209 477.803 49.5 475.803 41.5 463.803C41.6667 463.136 42.0001 459.612 42.0001 457.612C42.0001 446.612 41.0424 436.334 40.5 431.303C68.6667 438.469 145.8 448.503 231 431.303L230 444.803Z" fill="#F5B85B"/>
<path d="M40.5 431.303C79.7848 425.409 174.316 417.158 231 431.303C208.094 443.511 71.1208 450.877 40.5 431.303Z" fill="#F0A432"/>
<path d="M235 398.303C148.694 415.503 65.5325 405.469 37 398.303C38.2 407.503 40 424.303 40.5 431.303C60 447.303 187 450.303 231 431.303L235 398.303Z" fill="#F5B85B"/>
<path d="M37 398.303C76.795 392.409 177.58 384.158 235 398.303C211.796 410.511 68.0184 417.877 37 398.303Z" fill="#F0A432"/>
<path d="M239.5 366.303C148.501 383.318 62.5838 373.393 32.5 366.303L37 398.303C64 418.303 212.571 412.153 235 398.303L239.5 366.303Z" fill="#F5B85B"/>
<path d="M32.5 366.303C72.295 360.409 182.08 352.158 239.5 366.303C216.296 378.511 63.5184 385.877 32.5 366.303Z" fill="#F0A432"/>
<path d="M244.5 333.303C151.112 350.503 58.3737 340.469 27.5 333.303L32.5 366.303C34.5 380.803 206 388.303 239.5 366.303L244.5 333.303Z" fill="#F5B85B"/>
<path d="M27.5 333.303C70.5602 327.409 182.368 319.158 244.5 333.303C219.392 345.511 61.0635 352.877 27.5 333.303Z" fill="#F0A432"/>
<path d="M250 300.303C151.864 317.503 54.4433 307.469 22 300.303L27.5 333.303C56.5 353.803 220.312 347.303 244.5 333.303L250 300.303Z" fill="#F5B85B"/>
<path d="M22 300.303C67.2495 294.409 184.709 286.158 250 300.303C223.616 312.511 57.27 319.877 22 300.303Z" fill="#F0A432"/>
<path d="M255.5 267.303C152.457 284.503 50.5655 274.469 16.5 267.303L22 300.303C47.5 320.803 227 315.303 250 300.303L255.5 267.303Z" fill="#F5B85B"/>
<path d="M16.5 267.303C64.012 261.409 186.945 253.158 255.5 267.303C227.797 279.511 53.5335 286.877 16.5 267.303Z" fill="#F0A432"/>
<path d="M260.5 234.303C152.996 251.503 47.0402 241.469 11.5 234.303L16.5 267.303C29.5 287.303 233 283.803 255.5 267.303L260.5 234.303Z" fill="#F5B85B"/>
<path d="M11.5 234.303C61.0688 228.409 188.977 220.158 260.5 234.303C231.597 246.511 50.1367 253.877 11.5 234.303Z" fill="#F0A432"/>
<path d="M264.5 201.303C152.09 218.503 44.6624 208.969 7.5 201.803L11.5 234.303C32 254.803 231 253.803 260.5 234.303L264.5 201.303Z" fill="#F5B85B"/>
<path d="M7.5 201.803C59.3312 195.909 189.713 187.158 264.5 201.303C234.278 213.511 47.9002 221.377 7.5 201.803Z" fill="#F0A432"/>
<path d="M267.5 169.303C151.967 186.503 42.6947 176.469 4.5 169.303L7.5 201.803C27 221.303 239.5 218.803 264.5 201.303L267.5 169.303Z" fill="#F5B85B"/>
<path d="M4.5 169.303C57.771 163.409 190.635 155.158 267.5 169.303C236.439 181.511 46.0224 188.877 4.5 169.303Z" fill="#F0A432"/>
<path d="M270 136.803C150.899 154.003 41.3744 143.969 2 136.803L4.5 169.303C11 191.803 252 188.303 267.5 169.303L270 136.803Z" fill="#F5B85B"/>
<path d="M2 136.803C56.9164 130.909 190.761 122.658 270 136.803C237.979 149.011 44.805 156.377 2 136.803Z" fill="#F0A432"/>
<path d="M271.5 103.303C150.168 120.503 40.6118 110.469 0.5 103.303L2 136.803C13 157.303 248 153.803 270 136.803L271.5 103.303Z" fill="#F5B85B"/>
<path d="M0.5 103.303C56.4448 97.4092 190.777 89.1582 271.5 103.303C238.88 115.511 44.1065 122.878 0.5 103.303Z" fill="#F0A432"/>
<path d="M272 70.3026C149.776 87.5026 40.4067 77.4693 0 70.3026L0.5 103.303C14 125.303 253 120.303 271.5 103.303L272 70.3026Z" fill="#F5B85B"/>
<path d="M0 70.3026C56.3562 64.4091 190.684 56.1583 272 70.3026C239.14 82.5106 43.9272 89.8775 0 70.3026Z" fill="#F0A432"/>
<path d="M271.5 37.3027C149.276 54.5027 40.9067 44.4693 0.5 37.3026L0 70.3026C2.5 88.8026 252.5 86.8026 272 70.3027L271.5 37.3027Z" fill="#F5B85B"/>
<path d="M0.5 37.3026C56.8562 31.4091 190.184 23.1583 271.5 37.3027C238.64 49.5106 44.4272 56.8775 0.5 37.3026Z" fill="#F0A432"/>
<path d="M270.5 7.30261C150.06 23.3856 41.3168 14.0038 1.5 7.30261L0.5 37.3026C17.5 58.3026 250 53.8026 271.5 37.3026L270.5 7.30261Z" fill="#F5B85B"/>
<path d="M1.5 7.30261C57.0335 1.79186 190.371 -5.92312 270.5 7.30267C238.119 18.7178 44.7859 25.6062 1.5 7.30261Z" fill="#F0A432"/>
</svg>
