<svg width="272" height="530" viewBox="0 0 272 530" fill="none" xmlns="http://www.w3.org/2000/svg">
<path d="M52.9979 519.13C43.7774 516.849 32.0001 516.745 40.0002 497.31C40.5002 496.143 41.0002 493.81 41.5002 491.31C70.3335 496.31 148.8 503.31 230 491.31C230 492.81 230.6 496.51 231 497.31L231.5 498.697C237.267 512.152 228.721 517.348 219.5 519.628C212.5 521.359 191.851 529.84 136.54 529.48C81.2297 529.12 64.9629 521.23 52.9979 519.13Z" fill="#F5B85B"/>
<path d="M37.999 510.726C87.1256 528.585 181.369 523.218 231.999 510.726C201.42 531.712 72.5882 535.21 37.999 510.726Z" fill="#EC9A1E"/>
<path d="M41.5 491.31C81.4117 487.184 172.411 481.409 230 491.31C206.728 499.855 72.6094 505.012 41.5 491.31Z" fill="#F0A432"/>
<path d="M230 472.31C229 485.31 230 489.81 230 491.31C209 505.31 49.5 503.31 41.5 491.31C41.6667 490.643 42.0001 487.12 42.0001 485.12C42.0001 474.12 41.0424 463.842 40.5 458.81C68.6667 465.976 145.8 476.01 231 458.81L230 472.31Z" fill="#F5B85B"/>
<path d="M40.5 458.81C79.7848 452.916 174.316 444.665 231 458.81C208.094 471.018 71.1208 478.385 40.5 458.81Z" fill="#F0A432"/>
<path d="M235 425.81C148.694 443.01 65.5325 432.976 37 425.81C38.2 435.01 40 451.81 40.5 458.81C60 474.81 187 477.81 231 458.81L235 425.81Z" fill="#F5B85B"/>
<path d="M37 425.81C76.795 419.916 177.58 411.665 235 425.81C211.796 438.018 68.0184 445.385 37 425.81Z" fill="#F0A432"/>
<path d="M239.5 393.81C148.501 410.826 62.5838 400.9 32.5 393.81L37 425.81C64 445.81 212.571 439.66 235 425.81L239.5 393.81Z" fill="#F5B85B"/>
<path d="M32.5 393.81C72.295 387.916 182.08 379.665 239.5 393.81C216.296 406.018 63.5184 413.385 32.5 393.81Z" fill="#F0A432"/>
<path d="M244.5 360.81C151.112 378.01 58.3737 367.976 27.5 360.81L32.5 393.81C34.5 408.31 206 415.81 239.5 393.81L244.5 360.81Z" fill="#F5B85B"/>
<path d="M27.5 360.81C70.5602 354.916 182.368 346.665 244.5 360.81C219.392 373.018 61.0635 380.385 27.5 360.81Z" fill="#F0A432"/>
<path d="M250 327.81C151.864 345.01 54.4433 334.977 22 327.81L27.5 360.81C56.5 381.31 220.312 374.81 244.5 360.81L250 327.81Z" fill="#F5B85B"/>
<path d="M22 327.81C67.2495 321.916 184.709 313.665 250 327.81C223.616 340.018 57.27 347.385 22 327.81Z" fill="#F0A432"/>
<path d="M255.5 294.81C152.457 312.01 50.5655 301.976 16.5 294.81L22 327.81C47.5 348.31 227 342.81 250 327.81L255.5 294.81Z" fill="#F5B85B"/>
<path d="M16.5 294.81C64.012 288.916 186.945 280.665 255.5 294.81C227.797 307.018 53.5335 314.385 16.5 294.81Z" fill="#F0A432"/>
<path d="M260.5 261.81C152.996 279.01 47.0402 268.977 11.5 261.81L16.5 294.81C29.5 314.81 233 311.31 255.5 294.81L260.5 261.81Z" fill="#F5B85B"/>
<path d="M11.5 261.81C61.0688 255.916 188.977 247.665 260.5 261.81C231.597 274.018 50.1367 281.385 11.5 261.81Z" fill="#F0A432"/>
<path d="M264.5 228.81C152.09 246.01 44.6624 236.477 7.5 229.31L11.5 261.81C32 282.31 231 281.31 260.5 261.81L264.5 228.81Z" fill="#F5B85B"/>
<path d="M7.5 229.31C59.3312 223.416 189.713 214.665 264.5 228.81C234.278 241.018 47.9002 248.885 7.5 229.31Z" fill="#F0A432"/>
<path d="M267.5 196.81C151.967 214.01 42.6947 203.976 4.5 196.81L7.5 229.31C27 248.81 239.5 246.31 264.5 228.81L267.5 196.81Z" fill="#F5B85B"/>
<path d="M4.5 196.81C57.771 190.916 190.635 182.665 267.5 196.81C236.439 209.018 46.0224 216.385 4.5 196.81Z" fill="#F0A432"/>
<path d="M270 164.31C150.899 181.51 41.3744 171.477 2 164.31L4.5 196.81C11 219.31 252 215.81 267.5 196.81L270 164.31Z" fill="#F5B85B"/>
<path d="M2 164.31C56.9164 158.416 190.761 150.165 270 164.31C237.979 176.518 44.805 183.885 2 164.31Z" fill="#F0A432"/>
<path d="M271.5 130.81C150.168 148.01 40.6118 137.977 0.5 130.81L2 164.31C13 184.81 248 181.31 270 164.31L271.5 130.81Z" fill="#F5B85B"/>
<path d="M0.5 130.81C56.4448 124.916 190.777 116.665 271.5 130.81C238.88 143.018 44.1065 150.385 0.5 130.81Z" fill="#F0A432"/>
<path d="M272 97.8098C149.776 115.01 40.4067 104.976 0 97.8098L0.5 130.81C14 152.81 253 147.81 271.5 130.81L272 97.8098Z" fill="#F5B85B"/>
<path d="M0 97.8098C56.3562 91.9163 190.684 83.6655 272 97.8098C239.14 110.018 43.9272 117.385 0 97.8098Z" fill="#F0A432"/>
<path d="M271.5 64.8099C149.276 82.0099 40.9067 71.9765 0.5 64.8098L0 97.8098C2.5 116.31 252.5 114.31 272 97.8099L271.5 64.8099Z" fill="#F5B85B"/>
<path d="M0.5 64.8098C56.8562 58.9163 190.184 50.6655 271.5 64.8099C238.64 77.0178 44.4272 84.3847 0.5 64.8098Z" fill="#F0A432"/>
<path d="M270.5 34.8098C150.06 50.8928 41.3168 41.511 1.5 34.8098L0.5 64.8098C17.5 85.8098 250 81.3098 271.5 64.8098L270.5 34.8098Z" fill="#F5B85B"/>
<path d="M1.5 34.8098C57.0335 29.2991 190.371 21.5841 270.5 34.8099C238.119 46.225 44.7859 53.1134 1.5 34.8098Z" fill="#F0A432"/>
<path d="M268 7.80994C146.668 25.0099 44.1118 14.9766 4 7.80994C3 14.8099 2.7 18.8099 1.5 34.8099C24 56.3098 243 52.3098 270.5 34.8099C269.5 19.3099 268.5 8.4766 268 7.80994Z" fill="#F5B85B"/>
<path d="M4 7.80981C59.9448 1.91632 187.277 -6.3345 268 7.80989C235.38 20.0178 47.6065 27.3847 4 7.80981Z" fill="#F0A432"/>
</svg>
