<svg width="197" height="79" viewBox="0 0 197 79" fill="none" xmlns="http://www.w3.org/2000/svg">
<path d="M15.6512 68.1298C6.43072 65.8493 -5.34661 65.7455 2.6535 46.3099C3.1535 45.1432 3.6535 42.8099 4.1535 40.3099C32.9868 45.3099 111.454 52.3099 192.654 40.3099C192.654 41.8099 193.254 45.5099 193.654 46.3099L194.154 47.6971C199.92 61.1525 191.374 66.3478 182.153 68.6282C175.153 70.3594 154.504 78.8406 99.1935 78.4805C43.8831 78.1205 27.6162 70.2299 15.6512 68.1298Z" fill="#F5B85B"/>
<path d="M0.652313 59.7265C49.7789 77.5851 144.022 72.2181 194.652 59.7265C164.074 80.7123 35.2415 84.21 0.652313 59.7265Z" fill="#EC9A1E"/>
<path d="M4.1535 40.3098C44.0652 36.1844 135.065 30.4088 192.654 40.3099C169.382 48.8554 35.2629 54.0122 4.1535 40.3098Z" fill="#F0A432"/>
<path d="M192.654 21.3099C191.654 34.3099 192.654 38.8099 192.654 40.3099C171.654 54.3099 12.1535 52.3099 4.1535 40.3099C4.32017 39.6432 4.65356 36.1198 4.65356 34.1198C4.65356 23.1198 3.69588 12.8416 3.1535 7.80988C31.3202 14.9765 108.454 25.0099 193.654 7.80988L192.654 21.3099Z" fill="#F5B85B"/>
<path d="M3.1535 7.80988C42.4383 1.91638 136.969 -6.33454 193.654 7.80985C170.747 20.0178 33.7743 27.3847 3.1535 7.80988Z" fill="#F0A432"/>
</svg>
