<svg width="198" height="112" viewBox="0 0 198 112" fill="none" xmlns="http://www.w3.org/2000/svg">
<path d="M15.9977 101.13C6.77721 98.8493 -5.00011 98.7455 3 79.3099C3.5 78.1432 4 75.8099 4.5 73.3099C33.3333 78.3099 111.8 85.3099 193 73.3099C193 74.8099 193.6 78.5099 194 79.3099L194.5 80.6971C200.267 94.1525 191.72 99.3478 182.5 101.628C175.5 103.359 154.85 111.841 99.54 111.481C44.2296 111.121 27.9627 103.23 15.9977 101.13Z" fill="#F5B85B"/>
<path d="M0.998816 92.7265C50.1254 110.585 144.368 105.218 194.999 92.7265C164.42 113.712 35.588 117.21 0.998816 92.7265Z" fill="#EC9A1E"/>
<path d="M4.5 73.3098C44.4117 69.1844 135.411 63.4088 193 73.3099C169.728 81.8554 35.6094 87.0122 4.5 73.3098Z" fill="#F0A432"/>
<path d="M193 54.3099C192 67.3099 193 71.8099 193 73.3099C172 87.3099 12.5 85.3099 4.5 73.3099C4.66667 72.6432 5.00006 69.1198 5.00006 67.1198C5.00006 56.1198 4.04238 45.8416 3.5 40.8099C31.6667 47.9765 108.8 58.0099 194 40.8099L193 54.3099Z" fill="#F5B85B"/>
<path d="M3.5 40.8099C42.7848 34.9164 137.316 26.6655 194 40.8098C171.094 53.0178 34.1208 60.3847 3.5 40.8099Z" fill="#F0A432"/>
<path d="M198 7.80988C111.694 25.0099 28.5325 14.9765 0 7.80988C1.2 17.0099 3 33.8099 3.5 40.8099C23 56.8099 150 59.8099 194 40.8099L198 7.80988Z" fill="#F5B85B"/>
<path d="M0 7.80985C39.795 1.91635 140.58 -6.33451 198 7.80988C174.796 20.0178 31.0184 27.3847 0 7.80985Z" fill="#F0A432"/>
</svg>
