<svg width="207" height="144" viewBox="0 0 207 144" fill="none" xmlns="http://www.w3.org/2000/svg">
<path d="M20.4977 133.13C11.2772 130.849 -0.500113 130.745 7.5 111.31C8 110.143 8.5 107.81 9 105.31C37.8333 110.31 116.3 117.31 197.5 105.31C197.5 106.81 198.1 110.51 198.5 111.31L199 112.697C204.767 126.152 196.22 131.348 187 133.628C180 135.359 159.35 143.84 104.04 143.48C48.7296 143.12 32.4627 135.23 20.4977 133.13Z" fill="#F5B85B"/>
<path d="M5.49881 124.726C54.6254 142.585 148.868 137.218 199.499 124.726C168.92 145.712 40.088 149.21 5.49881 124.726Z" fill="#EC9A1E"/>
<path d="M9 105.31C48.9117 101.184 139.911 95.4087 197.5 105.31C174.228 113.855 40.1094 119.012 9 105.31Z" fill="#F0A432"/>
<path d="M197.5 86.3098C196.5 99.3098 197.5 103.81 197.5 105.31C176.5 119.31 17 117.31 9 105.31C9.16667 104.643 9.50006 101.12 9.50006 99.1197C9.50006 88.1197 8.54238 77.8416 8 72.8098C36.1667 79.9765 113.3 90.0098 198.5 72.8098L197.5 86.3098Z" fill="#F5B85B"/>
<path d="M8 72.8098C47.2848 66.9163 141.816 58.6654 198.5 72.8098C175.594 85.0177 38.6208 92.3847 8 72.8098Z" fill="#F0A432"/>
<path d="M202.5 39.8098C116.194 57.0098 33.0325 46.9765 4.5 39.8098C5.7 49.0098 7.5 65.8098 8 72.8098C27.5 88.8098 154.5 91.8098 198.5 72.8098L202.5 39.8098Z" fill="#F5B85B"/>
<path d="M4.5 39.8098C44.295 33.9163 145.08 25.6654 202.5 39.8098C179.296 52.0178 35.5184 59.3846 4.5 39.8098Z" fill="#F0A432"/>
<path d="M207 7.80981C116.001 24.8257 30.0838 14.8998 0 7.80981L4.5 39.8098C31.5 59.8098 180.071 53.6599 202.5 39.8098L207 7.80981Z" fill="#F5B85B"/>
<path d="M0 7.80981C39.795 1.91632 149.58 -6.33453 207 7.80986C183.796 20.0178 31.0184 27.3847 0 7.80981Z" fill="#F0A432"/>
</svg>
