<svg width="217" height="177" viewBox="0 0 217 177" fill="none" xmlns="http://www.w3.org/2000/svg">
<path d="M25.4977 166.13C16.2772 163.849 4.49989 163.745 12.5 144.31C13 143.143 13.5 140.81 14 138.31C42.8333 143.31 121.3 150.31 202.5 138.31C202.5 139.81 203.1 143.51 203.5 144.31L204 145.697C209.767 159.152 201.22 164.348 192 166.628C185 168.359 164.35 176.84 109.04 176.48C53.7296 176.12 37.4627 168.23 25.4977 166.13Z" fill="#F5B85B"/>
<path d="M10.4988 157.726C59.6255 175.585 153.868 170.218 204.499 157.726C173.92 178.712 45.088 182.21 10.4988 157.726Z" fill="#EC9A1E"/>
<path d="M14 138.31C53.9117 134.184 144.911 128.409 202.5 138.31C179.228 146.855 45.1094 152.012 14 138.31Z" fill="#F0A432"/>
<path d="M202.5 119.31C201.5 132.31 202.5 136.81 202.5 138.31C181.5 152.31 22 150.31 14 138.31C14.1667 137.643 14.5001 134.12 14.5001 132.12C14.5001 121.12 13.5424 110.842 13 105.81C41.1667 112.976 118.3 123.01 203.5 105.81L202.5 119.31Z" fill="#F5B85B"/>
<path d="M13 105.81C52.2848 99.9163 146.816 91.6654 203.5 105.81C180.594 118.018 43.6208 125.385 13 105.81Z" fill="#F0A432"/>
<path d="M207.5 72.8098C121.194 90.0098 38.0325 79.9765 9.5 72.8098C10.7 82.0098 12.5 98.8098 13 105.81C32.5 121.81 159.5 124.81 203.5 105.81L207.5 72.8098Z" fill="#F5B85B"/>
<path d="M9.5 72.8098C49.295 66.9163 150.08 58.6654 207.5 72.8098C184.296 85.0178 40.5184 92.3846 9.5 72.8098Z" fill="#F0A432"/>
<path d="M212 40.8098C121.001 57.8257 35.0838 47.8998 5 40.8098L9.5 72.8098C36.5 92.8098 185.071 86.6599 207.5 72.8098L212 40.8098Z" fill="#F5B85B"/>
<path d="M5 40.8098C44.795 34.9163 154.58 26.6655 212 40.8099C188.796 53.0178 36.0184 60.3847 5 40.8098Z" fill="#F0A432"/>
<path d="M217 7.80981C123.612 25.0098 30.8737 14.9765 0 7.80981L5 40.8098C7 55.3098 178.5 62.8098 212 40.8098L217 7.80981Z" fill="#F5B85B"/>
<path d="M0 7.80984C43.0602 1.91635 154.868 -6.33464 217 7.80975C191.892 20.0177 33.5635 27.3847 0 7.80984Z" fill="#F0A432"/>
</svg>
