<svg width="228" height="210" viewBox="0 0 228 210" fill="none" xmlns="http://www.w3.org/2000/svg">
<path d="M30.9977 199.13C21.7772 196.849 9.99989 196.745 18 177.31C18.5 176.143 19 173.81 19.5 171.31C48.3333 176.31 126.8 183.31 208 171.31C208 172.81 208.6 176.51 209 177.31L209.5 178.697C215.267 192.152 206.72 197.348 197.5 199.628C190.5 201.359 169.85 209.84 114.54 209.48C59.2296 209.12 42.9627 201.23 30.9977 199.13Z" fill="#F5B85B"/>
<path d="M15.9988 190.726C65.1255 208.585 159.368 203.218 209.999 190.726C179.42 211.712 50.588 215.21 15.9988 190.726Z" fill="#EC9A1E"/>
<path d="M19.5 171.31C59.4117 167.184 150.411 161.409 208 171.31C184.728 179.855 50.6094 185.012 19.5 171.31Z" fill="#F0A432"/>
<path d="M208 152.31C207 165.31 208 169.81 208 171.31C187 185.31 27.5 183.31 19.5 171.31C19.6667 170.643 20.0001 167.12 20.0001 165.12C20.0001 154.12 19.0424 143.842 18.5 138.81C46.6667 145.976 123.8 156.01 209 138.81L208 152.31Z" fill="#F5B85B"/>
<path d="M18.5 138.81C57.7848 132.916 152.316 124.665 209 138.81C186.094 151.018 49.1208 158.385 18.5 138.81Z" fill="#F0A432"/>
<path d="M213 105.81C126.694 123.01 43.5325 112.976 15 105.81C16.2 115.01 18 131.81 18.5 138.81C38 154.81 165 157.81 209 138.81L213 105.81Z" fill="#F5B85B"/>
<path d="M15 105.81C54.795 99.9163 155.58 91.6654 213 105.81C189.796 118.018 46.0184 125.385 15 105.81Z" fill="#F0A432"/>
<path d="M217.5 73.8098C126.501 90.8257 40.5838 80.8998 10.5 73.8098L15 105.81C42 125.81 190.571 119.66 213 105.81L217.5 73.8098Z" fill="#F5B85B"/>
<path d="M10.5 73.8098C50.295 67.9163 160.08 59.6655 217.5 73.8099C194.296 86.0178 41.5184 93.3847 10.5 73.8098Z" fill="#F0A432"/>
<path d="M222.5 40.8098C129.112 58.0098 36.3737 47.9765 5.5 40.8098L10.5 73.8098C12.5 88.3098 184 95.8098 217.5 73.8098L222.5 40.8098Z" fill="#F5B85B"/>
<path d="M5.5 40.8098C48.5602 34.9163 160.368 26.6654 222.5 40.8098C197.392 53.0177 39.0635 60.3847 5.5 40.8098Z" fill="#F0A432"/>
<path d="M228 7.80994C129.864 25.0099 32.4433 14.9766 0 7.80994L5.5 40.8099C34.5 61.3099 198.312 54.8099 222.5 40.8099L228 7.80994Z" fill="#F5B85B"/>
<path d="M0 7.80981C45.2495 1.91632 162.709 -6.33453 228 7.80986C201.616 20.0178 35.27 27.3847 0 7.80981Z" fill="#F0A432"/>
</svg>
