<svg width="239" height="243" viewBox="0 0 239 243" fill="none" xmlns="http://www.w3.org/2000/svg">
<path d="M36.4976 232.13C27.2772 229.849 15.4998 229.745 23.4999 210.31C23.9999 209.143 24.4999 206.81 24.9999 204.31C53.8333 209.31 132.3 216.31 213.5 204.31C213.5 205.81 214.1 209.51 214.5 210.31L215 211.697C220.767 225.152 212.22 230.348 203 232.628C196 234.359 175.35 242.84 120.04 242.48C64.7295 242.12 48.4626 234.23 36.4976 232.13Z" fill="#F5B85B"/>
<path d="M21.4988 223.726C70.6254 241.585 164.868 236.218 215.499 223.726C184.92 244.712 56.0879 248.21 21.4988 223.726Z" fill="#EC9A1E"/>
<path d="M24.9999 204.31C64.9116 200.184 155.911 194.409 213.5 204.31C190.228 212.855 56.1093 218.012 24.9999 204.31Z" fill="#F0A432"/>
<path d="M213.5 185.31C212.5 198.31 213.5 202.81 213.5 204.31C192.5 218.31 33 216.31 25 204.31C25.1667 203.643 25.5001 200.12 25.5001 198.12C25.5001 187.12 24.5424 176.842 24 171.81C52.1667 178.976 129.3 189.01 214.5 171.81L213.5 185.31Z" fill="#F5B85B"/>
<path d="M24 171.81C63.2848 165.916 157.816 157.665 214.5 171.81C191.594 184.018 54.6208 191.385 24 171.81Z" fill="#F0A432"/>
<path d="M218.5 138.81C132.194 156.01 49.0325 145.976 20.5 138.81C21.7 148.01 23.5 164.81 24 171.81C43.5 187.81 170.5 190.81 214.5 171.81L218.5 138.81Z" fill="#F5B85B"/>
<path d="M20.5 138.81C60.295 132.916 161.08 124.665 218.5 138.81C195.296 151.018 51.5184 158.385 20.5 138.81Z" fill="#F0A432"/>
<path d="M223 106.81C132.001 123.826 46.0838 113.9 16 106.81L20.5 138.81C47.5 158.81 196.071 152.66 218.5 138.81L223 106.81Z" fill="#F5B85B"/>
<path d="M16 106.81C55.795 100.916 165.58 92.6655 223 106.81C199.796 119.018 47.0184 126.385 16 106.81Z" fill="#F0A432"/>
<path d="M228 73.8098C134.612 91.0098 41.8737 80.9765 11 73.8098L16 106.81C18 121.31 189.5 128.81 223 106.81L228 73.8098Z" fill="#F5B85B"/>
<path d="M11 73.8098C54.0602 67.9163 165.868 59.6654 228 73.8098C202.892 86.0177 44.5635 93.3847 11 73.8098Z" fill="#F0A432"/>
<path d="M233.5 40.8099C135.364 58.0099 37.9433 47.9766 5.5 40.8099L11 73.8099C40 94.3099 203.812 87.8099 228 73.8099L233.5 40.8099Z" fill="#F5B85B"/>
<path d="M5.5 40.8098C50.7495 34.9163 168.209 26.6655 233.5 40.8099C207.116 53.0178 40.77 60.3847 5.5 40.8098Z" fill="#F0A432"/>
<path d="M239 7.80994C135.957 25.0099 34.0655 14.9765 0 7.80981L5.5 40.8098C31 61.3098 210.5 55.8098 233.5 40.8099L239 7.80994Z" fill="#F5B85B"/>
<path d="M0 7.80981C47.512 1.91632 170.445 -6.33452 239 7.80987C211.297 20.0178 37.0335 27.3847 0 7.80981Z" fill="#F0A432"/>
</svg>
