<svg width="249" height="276" viewBox="0 0 249 276" fill="none" xmlns="http://www.w3.org/2000/svg">
<path d="M41.4976 265.13C32.2772 262.849 20.4998 262.745 28.4999 243.31C28.9999 242.143 29.4999 239.81 29.9999 237.31C58.8333 242.31 137.3 249.31 218.5 237.31C218.5 238.81 219.1 242.51 219.5 243.31L220 244.697C225.767 258.152 217.22 263.348 208 265.628C201 267.359 180.35 275.84 125.04 275.48C69.7295 275.12 53.4626 267.23 41.4976 265.13Z" fill="#F5B85B"/>
<path d="M26.4988 256.726C75.6254 274.585 169.868 269.218 220.499 256.726C189.92 277.712 61.0879 281.21 26.4988 256.726Z" fill="#EC9A1E"/>
<path d="M29.9999 237.31C69.9116 233.184 160.911 227.409 218.5 237.31C195.228 245.855 61.1093 251.012 29.9999 237.31Z" fill="#F0A432"/>
<path d="M218.5 218.31C217.5 231.31 218.5 235.81 218.5 237.31C197.5 251.31 38 249.31 30 237.31C30.1667 236.643 30.5001 233.12 30.5001 231.12C30.5001 220.12 29.5424 209.842 29 204.81C57.1667 211.976 134.3 222.01 219.5 204.81L218.5 218.31Z" fill="#F5B85B"/>
<path d="M29 204.81C68.2848 198.916 162.816 190.665 219.5 204.81C196.594 217.018 59.6208 224.385 29 204.81Z" fill="#F0A432"/>
<path d="M223.5 171.81C137.194 189.01 54.0325 178.976 25.5 171.81C26.7 181.01 28.5 197.81 29 204.81C48.5 220.81 175.5 223.81 219.5 204.81L223.5 171.81Z" fill="#F5B85B"/>
<path d="M25.5 171.81C65.295 165.916 166.08 157.665 223.5 171.81C200.296 184.018 56.5184 191.385 25.5 171.81Z" fill="#F0A432"/>
<path d="M228 139.81C137.001 156.826 51.0838 146.9 21 139.81L25.5 171.81C52.5 191.81 201.071 185.66 223.5 171.81L228 139.81Z" fill="#F5B85B"/>
<path d="M21 139.81C60.795 133.916 170.58 125.665 228 139.81C204.796 152.018 52.0184 159.385 21 139.81Z" fill="#F0A432"/>
<path d="M233 106.81C139.612 124.01 46.8737 113.976 16 106.81L21 139.81C23 154.31 194.5 161.81 228 139.81L233 106.81Z" fill="#F5B85B"/>
<path d="M16 106.81C59.0602 100.916 170.868 92.6654 233 106.81C207.892 119.018 49.5635 126.385 16 106.81Z" fill="#F0A432"/>
<path d="M238.5 73.8099C140.364 91.0099 42.9433 80.9766 10.5 73.8099L16 106.81C45 127.31 208.812 120.81 233 106.81L238.5 73.8099Z" fill="#F5B85B"/>
<path d="M10.5 73.8098C55.7495 67.9163 173.209 59.6655 238.5 73.8099C212.116 86.0178 45.77 93.3847 10.5 73.8098Z" fill="#F0A432"/>
<path d="M244 40.8099C140.957 58.0099 39.0655 47.9765 5 40.8098L10.5 73.8098C36 94.3098 215.5 88.8098 238.5 73.8099L244 40.8099Z" fill="#F5B85B"/>
<path d="M5 40.8098C52.512 34.9163 175.445 26.6655 244 40.8099C216.297 53.0178 42.0335 60.3847 5 40.8098Z" fill="#F0A432"/>
<path d="M249 7.80994C141.496 25.0099 35.5402 14.9766 0 7.80994L5 40.8099C18 60.8098 221.5 57.3098 244 40.8099L249 7.80994Z" fill="#F5B85B"/>
<path d="M0 7.80981C49.5688 1.91632 177.477 -6.33452 249 7.80987C220.097 20.0178 38.6367 27.3847 0 7.80981Z" fill="#F0A432"/>
</svg>
