<svg width="257" height="309" viewBox="0 0 257 309" fill="none" xmlns="http://www.w3.org/2000/svg">
<path d="M45.4976 297.952C36.2772 295.671 24.4998 295.567 32.4999 276.132C32.9999 274.965 33.4999 272.632 33.9999 270.132C62.8333 275.132 141.3 282.132 222.5 270.132C222.5 271.632 223.1 275.332 223.5 276.132L224 277.519C229.767 290.974 221.22 296.17 212 298.45C205 300.181 184.35 308.663 129.04 308.302C73.7295 307.942 57.4626 300.052 45.4976 297.952Z" fill="#F5B85B"/>
<path d="M30.4988 289.548C79.6254 307.407 173.868 302.04 224.499 289.548C193.92 310.534 65.0879 314.032 30.4988 289.548Z" fill="#EC9A1E"/>
<path d="M33.9999 270.132C73.9116 266.006 164.911 260.231 222.5 270.132C199.228 278.677 65.1093 283.834 33.9999 270.132Z" fill="#F0A432"/>
<path d="M222.5 251.132C221.5 264.132 222.5 268.632 222.5 270.132C201.5 284.132 42 282.132 34 270.132C34.1667 269.465 34.5001 265.942 34.5001 263.942C34.5001 252.942 33.5424 242.664 33 237.632C61.1667 244.799 138.3 254.832 223.5 237.632L222.5 251.132Z" fill="#F5B85B"/>
<path d="M33 237.632C72.2848 231.738 166.816 223.487 223.5 237.632C200.594 249.84 63.6208 257.207 33 237.632Z" fill="#F0A432"/>
<path d="M227.5 204.632C141.194 221.832 58.0325 211.799 29.5 204.632C30.7 213.832 32.5 230.632 33 237.632C52.5 253.632 179.5 256.632 223.5 237.632L227.5 204.632Z" fill="#F5B85B"/>
<path d="M29.5 204.632C69.295 198.738 170.08 190.487 227.5 204.632C204.296 216.84 60.5184 224.207 29.5 204.632Z" fill="#F0A432"/>
<path d="M232 172.632C141.001 189.648 55.0838 179.722 25 172.632L29.5 204.632C56.5 224.632 205.071 218.482 227.5 204.632L232 172.632Z" fill="#F5B85B"/>
<path d="M25 172.632C64.795 166.738 174.58 158.487 232 172.632C208.796 184.84 56.0184 192.207 25 172.632Z" fill="#F0A432"/>
<path d="M237 139.632C143.612 156.832 50.8737 146.799 20 139.632L25 172.632C27 187.132 198.5 194.632 232 172.632L237 139.632Z" fill="#F5B85B"/>
<path d="M20 139.632C63.0602 133.738 174.868 125.487 237 139.632C211.892 151.84 53.5635 159.207 20 139.632Z" fill="#F0A432"/>
<path d="M242.5 106.632C144.364 123.832 46.9433 113.799 14.5 106.632L20 139.632C49 160.132 212.812 153.632 237 139.632L242.5 106.632Z" fill="#F5B85B"/>
<path d="M14.5 106.632C59.7495 100.738 177.209 92.4875 242.5 106.632C216.116 118.84 49.77 126.207 14.5 106.632Z" fill="#F0A432"/>
<path d="M248 73.632C144.957 90.832 43.0655 80.7985 9 73.6318L14.5 106.632C40 127.132 219.5 121.632 242.5 106.632L248 73.632Z" fill="#F5B85B"/>
<path d="M9 73.6318C56.512 67.7383 179.445 59.4875 248 73.6319C220.297 85.8398 46.0335 93.2067 9 73.6318Z" fill="#F0A432"/>
<path d="M253 40.632C145.496 57.832 39.5402 47.7986 4 40.632L9 73.632C22 93.6318 225.5 90.1318 248 73.632L253 40.632Z" fill="#F5B85B"/>
<path d="M4 40.6318C53.5688 34.7383 181.477 26.4875 253 40.6319C224.097 52.8398 42.6367 60.2067 4 40.6318Z" fill="#F0A432"/>
<path d="M257 7.63196C144.59 24.832 37.1624 15.2986 0 8.13196L4 40.632C24.5 61.1318 223.5 60.1318 253 40.632L257 7.63196Z" fill="#F5B85B"/>
<path d="M0 8.13188C51.8312 2.23838 182.213 -6.51255 257 7.63184C226.778 19.8398 40.4002 27.7067 0 8.13188Z" fill="#F0A432"/>
</svg>
