<svg width="197" height="44" viewBox="0 0 197 44" fill="none" xmlns="http://www.w3.org/2000/svg">
<path d="M15.9977 33.3199C6.77721 31.0395 -5.00011 30.9356 3 11.5C3.5 10.3333 4 8 4.5 5.5C33.3333 10.5 111.8 17.5 193 5.5C193 7 193.6 10.7 194 11.5L194.5 12.8872C200.267 26.3426 191.72 31.5379 182.5 33.8183C175.5 35.5496 154.85 44.0307 99.54 43.6707C44.2296 43.3106 27.9627 35.42 15.9977 33.3199Z" fill="#F5B85B"/>
<path d="M0.99884 24.9166C50.1255 42.7752 144.368 37.4082 194.999 24.9166C164.42 45.9025 35.588 49.4001 0.99884 24.9166Z" fill="#EC9A1E"/>
<path d="M4.5 5.49997C44.4117 1.37452 135.411 -4.40107 193 5.5C169.728 14.0456 35.6094 19.2024 4.5 5.49997Z" fill="#F0A432"/>
</svg>
